<svg xmlns="http://www.w3.org/2000/svg" width="28" height="28" viewBox="0 0 28 28"><defs><style>.a{fill:#70def5;}.b{fill:#fff;}.c{fill:#0bdcf3;}</style></defs><g transform="translate(2069 -1427)"><g transform="translate(-2069 1427)"><path class="a" d="M212.359,209.68a2.68,2.68,0,1,1-2.68-2.68A2.68,2.68,0,0,1,212.359,209.68Zm0,0" transform="translate(-195.68 -195.68)"/><path class="a" d="M148.342,137.338a2.662,2.662,0,0,0-1.526-1.526,4.447,4.447,0,0,0-1.493-.277c-.848-.039-1.1-.047-3.249-.047s-2.4.008-3.249.047a4.45,4.45,0,0,0-1.493.277,2.663,2.663,0,0,0-1.526,1.526,4.449,4.449,0,0,0-.277,1.493c-.039.848-.047,1.1-.047,3.249s.008,2.4.047,3.249a4.448,4.448,0,0,0,.277,1.493,2.662,2.662,0,0,0,1.526,1.526,4.442,4.442,0,0,0,1.493.277c.848.039,1.1.047,3.248.047s2.4-.008,3.249-.047a4.442,4.442,0,0,0,1.493-.277,2.662,2.662,0,0,0,1.526-1.526,4.452,4.452,0,0,0,.277-1.493c.039-.848.047-1.1.047-3.249s-.008-2.4-.047-3.249A4.442,4.442,0,0,0,148.342,137.338Zm-6.267,8.869a4.128,4.128,0,1,1,4.128-4.128A4.128,4.128,0,0,1,142.075,146.207Zm4.291-7.455a.965.965,0,1,1,.965-.965A.965.965,0,0,1,146.367,138.753Zm0,0" transform="translate(-128.075 -128.079)"/><path class="b" d="M14,0A14,14,0,1,0,28,14,14,14,0,0,0,14,0Z"/></g><g transform="translate(-2069 1427)"><path class="c" d="M212.359,209.68a2.68,2.68,0,1,1-2.68-2.68A2.68,2.68,0,0,1,212.359,209.68Zm0,0" transform="translate(-195.68 -195.68)"/><path class="c" d="M148.342,137.338a2.662,2.662,0,0,0-1.526-1.526,4.447,4.447,0,0,0-1.493-.277c-.848-.039-1.1-.047-3.249-.047s-2.4.008-3.249.047a4.45,4.45,0,0,0-1.493.277,2.663,2.663,0,0,0-1.526,1.526,4.449,4.449,0,0,0-.277,1.493c-.039.848-.047,1.1-.047,3.249s.008,2.4.047,3.249a4.448,4.448,0,0,0,.277,1.493,2.662,2.662,0,0,0,1.526,1.526,4.442,4.442,0,0,0,1.493.277c.848.039,1.1.047,3.248.047s2.4-.008,3.249-.047a4.442,4.442,0,0,0,1.493-.277,2.662,2.662,0,0,0,1.526-1.526,4.452,4.452,0,0,0,.277-1.493c.039-.848.047-1.1.047-3.249s-.008-2.4-.047-3.249A4.442,4.442,0,0,0,148.342,137.338Zm-6.267,8.869a4.128,4.128,0,1,1,4.128-4.128A4.128,4.128,0,0,1,142.075,146.207Zm4.291-7.455a.965.965,0,1,1,.965-.965A.965.965,0,0,1,146.367,138.753Zm0,0" transform="translate(-128.075 -128.079)"/><path class="c" d="M14,0A14,14,0,1,0,28,14,14,14,0,0,0,14,0Zm7.991,17.314a5.9,5.9,0,0,1-.374,1.951,4.111,4.111,0,0,1-2.351,2.351,5.9,5.9,0,0,1-1.951.374c-.857.039-1.131.048-3.314.048s-2.457-.009-3.315-.048a5.9,5.9,0,0,1-1.951-.374,4.111,4.111,0,0,1-2.351-2.351,5.9,5.9,0,0,1-.374-1.951c-.04-.857-.049-1.131-.049-3.315s.009-2.457.048-3.314a5.9,5.9,0,0,1,.373-1.951A4.113,4.113,0,0,1,8.734,6.383a5.9,5.9,0,0,1,1.951-.374c.857-.039,1.131-.048,3.314-.048s2.457.009,3.314.049a5.9,5.9,0,0,1,1.951.373,4.112,4.112,0,0,1,2.351,2.351,5.9,5.9,0,0,1,.374,1.951c.039.857.048,1.131.048,3.314S22.03,16.457,21.991,17.314Zm0,0"/></g></g></svg>