<svg xmlns="http://www.w3.org/2000/svg" width="28" height="28" viewBox="0 0 28 28"><defs><style>.a{fill:#70def5;}.b{fill:#fff;}.c{fill:#0bdcf3;}</style></defs><g transform="translate(2053 -1396)"><g transform="translate(-2053 1396)"><path class="a" d="M212.359,209.68a2.68,2.68,0,1,1-2.68-2.68A2.68,2.68,0,0,1,212.359,209.68Zm0,0" transform="translate(-195.68 -195.68)"/><path class="a" d="M148.342,137.338a2.662,2.662,0,0,0-1.526-1.526,4.447,4.447,0,0,0-1.493-.277c-.848-.039-1.1-.047-3.249-.047s-2.4.008-3.249.047a4.45,4.45,0,0,0-1.493.277,2.663,2.663,0,0,0-1.526,1.526,4.449,4.449,0,0,0-.277,1.493c-.039.848-.047,1.1-.047,3.249s.008,2.4.047,3.249a4.448,4.448,0,0,0,.277,1.493,2.662,2.662,0,0,0,1.526,1.526,4.442,4.442,0,0,0,1.493.277c.848.039,1.1.047,3.248.047s2.4-.008,3.249-.047a4.442,4.442,0,0,0,1.493-.277,2.662,2.662,0,0,0,1.526-1.526,4.452,4.452,0,0,0,.277-1.493c.039-.848.047-1.1.047-3.249s-.008-2.4-.047-3.249A4.442,4.442,0,0,0,148.342,137.338Zm-6.267,8.869a4.128,4.128,0,1,1,4.128-4.128A4.128,4.128,0,0,1,142.075,146.207Zm4.291-7.455a.965.965,0,1,1,.965-.965A.965.965,0,0,1,146.367,138.753Zm0,0" transform="translate(-128.075 -128.079)"/><path class="b" d="M14,0A14,14,0,1,0,28,14,14,14,0,0,0,14,0Z"/></g><path class="c" d="M14,0A14,14,0,1,0,28,14,14,14,0,0,0,14,0ZM9.932,21.164H6.522V10.906h3.41ZM8.227,9.505H8.2A1.777,1.777,0,1,1,8.25,5.961a1.778,1.778,0,1,1-.023,3.544Zm14,11.659H18.817V15.676c0-1.379-.494-2.32-1.727-2.32A1.867,1.867,0,0,0,15.34,14.6a2.335,2.335,0,0,0-.112.832v5.729H11.819s.045-9.3,0-10.258h3.409v1.452A3.385,3.385,0,0,1,18.3,10.665c2.243,0,3.925,1.466,3.925,4.617Zm0,0" transform="translate(-2053 1396)"/></g></svg>