<svg xmlns="http://www.w3.org/2000/svg" width="28" height="28" viewBox="0 0 28 28"><defs><style>.a{fill:#70def5;}.b{fill:#fff;}.c{fill:#0bdcf3;}</style></defs><g transform="translate(2002 -1395)"><g transform="translate(-2002 1395)"><path class="a" d="M212.359,209.68a2.68,2.68,0,1,1-2.68-2.68A2.68,2.68,0,0,1,212.359,209.68Zm0,0" transform="translate(-195.68 -195.68)"/><path class="a" d="M148.342,137.338a2.662,2.662,0,0,0-1.526-1.526,4.447,4.447,0,0,0-1.493-.277c-.848-.039-1.1-.047-3.249-.047s-2.4.008-3.249.047a4.45,4.45,0,0,0-1.493.277,2.663,2.663,0,0,0-1.526,1.526,4.449,4.449,0,0,0-.277,1.493c-.039.848-.047,1.1-.047,3.249s.008,2.4.047,3.249a4.448,4.448,0,0,0,.277,1.493,2.662,2.662,0,0,0,1.526,1.526,4.442,4.442,0,0,0,1.493.277c.848.039,1.1.047,3.248.047s2.4-.008,3.249-.047a4.442,4.442,0,0,0,1.493-.277,2.662,2.662,0,0,0,1.526-1.526,4.452,4.452,0,0,0,.277-1.493c.039-.848.047-1.1.047-3.249s-.008-2.4-.047-3.249A4.442,4.442,0,0,0,148.342,137.338Zm-6.267,8.869a4.128,4.128,0,1,1,4.128-4.128A4.128,4.128,0,0,1,142.075,146.207Zm4.291-7.455a.965.965,0,1,1,.965-.965A.965.965,0,0,1,146.367,138.753Zm0,0" transform="translate(-128.075 -128.079)"/><path class="b" d="M14,0A14,14,0,1,0,28,14,14,14,0,0,0,14,0Z"/></g><g transform="translate(-2002 1395)"><path class="c" d="M224.113,213.285l4.554-2.623-4.554-2.623Zm0,0" transform="translate(-211.857 -196.662)"/><path class="c" d="M14,0A14,14,0,1,0,28,14,14,14,0,0,0,14,0Zm8.748,14.014a23.107,23.107,0,0,1-.36,4.208,2.192,2.192,0,0,1-1.542,1.542,53.211,53.211,0,0,1-6.846.36,51.307,51.307,0,0,1-6.846-.375,2.192,2.192,0,0,1-1.542-1.542A23.005,23.005,0,0,1,5.252,14a23.091,23.091,0,0,1,.36-4.208A2.237,2.237,0,0,1,7.154,8.235,53.211,53.211,0,0,1,14,7.875a51.2,51.2,0,0,1,6.846.375,2.192,2.192,0,0,1,1.542,1.542,21.927,21.927,0,0,1,.36,4.222Zm0,0"/></g></g></svg>